<?xml version="1.0" encoding="UTF-8" standalone="no"?><svg xmlns="http://www.w3.org/2000/svg" xmlns:xlink="http://www.w3.org/1999/xlink" contentScriptType="application/ecmascript" contentStyleType="text/css" height="1019px" preserveAspectRatio="none" style="width:502px;height:1019px;" version="1.1" viewBox="0 0 502 1019" width="502px" zoomAndPan="magnify"><defs><filter height="300%" id="fcwf0ef" width="300%" x="-1" y="-1"><feGaussianBlur result="blurOut" stdDeviation="2.0"/><feColorMatrix in="blurOut" result="blurOut2" type="matrix" values="0 0 0 0 0 0 0 0 0 0 0 0 0 0 0 0 0 0 .4 0"/><feOffset dx="4.0" dy="4.0" in="blurOut2" result="blurOut3"/><feBlend in="SourceGraphic" in2="blurOut3" mode="normal"/></filter></defs><g><rect fill="#FFFFFF" filter="url(#fcwf0ef)" height="809.0547" style="stroke: #A80036; stroke-width: 1.0;" width="10" x="154" y="117.2969"/><line style="stroke: #A80036; stroke-width: 1.0; stroke-dasharray: 5.0,5.0;" x1="27" x2="27" y1="86.2969" y2="935.3516"/><line style="stroke: #A80036; stroke-width: 1.0; stroke-dasharray: 5.0,5.0;" x1="158.5" x2="158.5" y1="86.2969" y2="935.3516"/><line style="stroke: #A80036; stroke-width: 1.0; stroke-dasharray: 5.0,5.0;" x1="355" x2="355" y1="86.2969" y2="935.3516"/><text fill="#000000" font-family="sans-serif" font-size="14" lengthAdjust="spacingAndGlyphs" textLength="32" x="8" y="82.9951">User</text><ellipse cx="27" cy="13" fill="#FEFECE" filter="url(#fcwf0ef)" rx="8" ry="8" style="stroke: #A80036; stroke-width: 2.0;"/><path d="M27,21 L27,48 M14,29 L40,29 M27,48 L14,63 M27,48 L40,63 " fill="#FEFECE" filter="url(#fcwf0ef)" style="stroke: #A80036; stroke-width: 2.0;"/><text fill="#000000" font-family="sans-serif" font-size="14" lengthAdjust="spacingAndGlyphs" textLength="32" x="8" y="947.3467">User</text><ellipse cx="27" cy="960.6484" fill="#FEFECE" filter="url(#fcwf0ef)" rx="8" ry="8" style="stroke: #A80036; stroke-width: 2.0;"/><path d="M27,968.6484 L27,995.6484 M14,976.6484 L40,976.6484 M27,995.6484 L14,1010.6484 M27,995.6484 L40,1010.6484 " fill="#FEFECE" filter="url(#fcwf0ef)" style="stroke: #A80036; stroke-width: 2.0;"/><rect fill="#FEFECE" filter="url(#fcwf0ef)" height="30.2969" style="stroke: #A80036; stroke-width: 1.5;" width="27" x="143.5" y="51"/><text fill="#000000" font-family="sans-serif" font-size="14" lengthAdjust="spacingAndGlyphs" textLength="13" x="150.5" y="70.9951">UI</text><rect fill="#FEFECE" filter="url(#fcwf0ef)" height="30.2969" style="stroke: #A80036; stroke-width: 1.5;" width="27" x="143.5" y="934.3516"/><text fill="#000000" font-family="sans-serif" font-size="14" lengthAdjust="spacingAndGlyphs" textLength="13" x="150.5" y="954.3467">UI</text><rect fill="#FEFECE" filter="url(#fcwf0ef)" height="30.2969" style="stroke: #A80036; stroke-width: 1.5;" width="58" x="324" y="51"/><text fill="#000000" font-family="sans-serif" font-size="14" lengthAdjust="spacingAndGlyphs" textLength="44" x="331" y="70.9951">Server</text><rect fill="#FEFECE" filter="url(#fcwf0ef)" height="30.2969" style="stroke: #A80036; stroke-width: 1.5;" width="58" x="324" y="934.3516"/><text fill="#000000" font-family="sans-serif" font-size="14" lengthAdjust="spacingAndGlyphs" textLength="44" x="331" y="954.3467">Server</text><rect fill="#FFFFFF" filter="url(#fcwf0ef)" height="809.0547" style="stroke: #A80036; stroke-width: 1.0;" width="10" x="154" y="117.2969"/><polygon fill="#A80036" points="142,113.2969,152,117.2969,142,121.2969,146,117.2969" style="stroke: #A80036; stroke-width: 1.0;"/><line style="stroke: #A80036; stroke-width: 1.0;" x1="27" x2="148" y1="117.2969" y2="117.2969"/><text fill="#000000" font-family="sans-serif" font-size="13" lengthAdjust="spacingAndGlyphs" textLength="63" x="34" y="112.3638">Open URL</text><polygon fill="#A80036" points="343,142.4297,353,146.4297,343,150.4297,347,146.4297" style="stroke: #A80036; stroke-width: 1.0;"/><line style="stroke: #A80036; stroke-width: 1.0;" x1="164" x2="349" y1="146.4297" y2="146.4297"/><text fill="#000000" font-family="sans-serif" font-size="13" lengthAdjust="spacingAndGlyphs" textLength="99" x="171" y="141.4966">Request par list</text><line style="stroke: #A80036; stroke-width: 1.0;" x1="355" x2="397" y1="175.6953" y2="175.6953"/><line style="stroke: #A80036; stroke-width: 1.0;" x1="397" x2="397" y1="175.6953" y2="188.6953"/><line style="stroke: #A80036; stroke-width: 1.0;" x1="356" x2="397" y1="188.6953" y2="188.6953"/><polygon fill="#A80036" points="366,184.6953,356,188.6953,366,192.6953,362,188.6953" style="stroke: #A80036; stroke-width: 1.0;"/><text fill="#000000" font-family="sans-serif" font-size="13" lengthAdjust="spacingAndGlyphs" textLength="73" x="362" y="170.6294">Gen par list</text><polygon fill="#A80036" points="175,213.6953,165,217.6953,175,221.6953,171,217.6953" style="stroke: #A80036; stroke-width: 1.0;"/><line style="stroke: #A80036; stroke-width: 1.0; stroke-dasharray: 2.0,2.0;" x1="169" x2="354" y1="217.6953" y2="217.6953"/><text fill="#000000" font-family="sans-serif" font-size="13" lengthAdjust="spacingAndGlyphs" textLength="80" x="181" y="212.7622">Send par list</text><line style="stroke: #A80036; stroke-width: 1.0;" x1="164" x2="206" y1="246.9609" y2="246.9609"/><line style="stroke: #A80036; stroke-width: 1.0;" x1="206" x2="206" y1="246.9609" y2="259.9609"/><line style="stroke: #A80036; stroke-width: 1.0;" x1="165" x2="206" y1="259.9609" y2="259.9609"/><polygon fill="#A80036" points="175,255.9609,165,259.9609,175,263.9609,171,259.9609" style="stroke: #A80036; stroke-width: 1.0;"/><text fill="#000000" font-family="sans-serif" font-size="13" lengthAdjust="spacingAndGlyphs" textLength="148" x="171" y="241.895">Generate par list menu</text><polygon fill="#A80036" points="142,284.9609,152,288.9609,142,292.9609,146,288.9609" style="stroke: #A80036; stroke-width: 1.0;"/><line style="stroke: #A80036; stroke-width: 1.0;" x1="27" x2="148" y1="288.9609" y2="288.9609"/><text fill="#000000" font-family="sans-serif" font-size="13" lengthAdjust="spacingAndGlyphs" textLength="48" x="34" y="284.0278">Choose</text><line style="stroke: #A80036; stroke-width: 1.0;" x1="164" x2="206" y1="318.2266" y2="318.2266"/><line style="stroke: #A80036; stroke-width: 1.0;" x1="206" x2="206" y1="318.2266" y2="331.2266"/><line style="stroke: #A80036; stroke-width: 1.0;" x1="165" x2="206" y1="331.2266" y2="331.2266"/><polygon fill="#A80036" points="175,327.2266,165,331.2266,175,335.2266,171,331.2266" style="stroke: #A80036; stroke-width: 1.0;"/><text fill="#000000" font-family="sans-serif" font-size="13" lengthAdjust="spacingAndGlyphs" textLength="46" x="171" y="313.1606">Submit</text><rect fill="#EEEEEE" filter="url(#fcwf0ef)" height="3" style="stroke: #EEEEEE; stroke-width: 1.0;" width="494" x="3" y="359.793"/><line style="stroke: #000000; stroke-width: 1.0;" x1="3" x2="497" y1="359.793" y2="359.793"/><line style="stroke: #000000; stroke-width: 1.0;" x1="3" x2="497" y1="362.793" y2="362.793"/><rect fill="#EEEEEE" filter="url(#fcwf0ef)" height="23.1328" style="stroke: #000000; stroke-width: 2.0;" width="85" x="207.5" y="349.2266"/><text fill="#000000" font-family="sans-serif" font-size="13" font-weight="bold" lengthAdjust="spacingAndGlyphs" textLength="71" x="213.5" y="365.2935">First step</text><polygon fill="#A80036" points="343,399.3594,353,403.3594,343,407.3594,347,403.3594" style="stroke: #A80036; stroke-width: 1.0;"/><line style="stroke: #A80036; stroke-width: 1.0;" x1="164" x2="349" y1="403.3594" y2="403.3594"/><text fill="#000000" font-family="sans-serif" font-size="13" lengthAdjust="spacingAndGlyphs" textLength="167" x="171" y="398.4263">Request user selected par</text><line style="stroke: #A80036; stroke-width: 1.0;" x1="355" x2="397" y1="432.625" y2="432.625"/><line style="stroke: #A80036; stroke-width: 1.0;" x1="397" x2="397" y1="432.625" y2="445.625"/><line style="stroke: #A80036; stroke-width: 1.0;" x1="356" x2="397" y1="445.625" y2="445.625"/><polygon fill="#A80036" points="366,441.625,356,445.625,366,449.625,362,445.625" style="stroke: #A80036; stroke-width: 1.0;"/><text fill="#000000" font-family="sans-serif" font-size="13" lengthAdjust="spacingAndGlyphs" textLength="81" x="362" y="427.5591">Reading XML</text><line style="stroke: #A80036; stroke-width: 1.0;" x1="355" x2="397" y1="474.7578" y2="474.7578"/><line style="stroke: #A80036; stroke-width: 1.0;" x1="397" x2="397" y1="474.7578" y2="487.7578"/><line style="stroke: #A80036; stroke-width: 1.0;" x1="356" x2="397" y1="487.7578" y2="487.7578"/><polygon fill="#A80036" points="366,483.7578,356,487.7578,366,491.7578,362,487.7578" style="stroke: #A80036; stroke-width: 1.0;"/><text fill="#000000" font-family="sans-serif" font-size="13" lengthAdjust="spacingAndGlyphs" textLength="121" x="362" y="469.6919">Converting to DOM</text><polygon fill="#A80036" points="175,512.7578,165,516.7578,175,520.7578,171,516.7578" style="stroke: #A80036; stroke-width: 1.0;"/><line style="stroke: #A80036; stroke-width: 1.0; stroke-dasharray: 2.0,2.0;" x1="169" x2="354" y1="516.7578" y2="516.7578"/><text fill="#000000" font-family="sans-serif" font-size="13" lengthAdjust="spacingAndGlyphs" textLength="137" x="181" y="511.8247">Send the par as DOM</text><line style="stroke: #A80036; stroke-width: 1.0;" x1="164" x2="206" y1="546.0234" y2="546.0234"/><line style="stroke: #A80036; stroke-width: 1.0;" x1="206" x2="206" y1="546.0234" y2="559.0234"/><line style="stroke: #A80036; stroke-width: 1.0;" x1="165" x2="206" y1="559.0234" y2="559.0234"/><polygon fill="#A80036" points="175,555.0234,165,559.0234,175,563.0234,171,559.0234" style="stroke: #A80036; stroke-width: 1.0;"/><text fill="#000000" font-family="sans-serif" font-size="13" lengthAdjust="spacingAndGlyphs" textLength="134" x="171" y="540.9575">Generate module list</text><polygon fill="#A80036" points="142,584.0234,152,588.0234,142,592.0234,146,588.0234" style="stroke: #A80036; stroke-width: 1.0;"/><line style="stroke: #A80036; stroke-width: 1.0;" x1="27" x2="148" y1="588.0234" y2="588.0234"/><text fill="#000000" font-family="sans-serif" font-size="13" lengthAdjust="spacingAndGlyphs" textLength="92" x="34" y="583.0903">Select module</text><line style="stroke: #A80036; stroke-width: 1.0;" x1="164" x2="206" y1="617.2891" y2="617.2891"/><line style="stroke: #A80036; stroke-width: 1.0;" x1="206" x2="206" y1="617.2891" y2="630.2891"/><line style="stroke: #A80036; stroke-width: 1.0;" x1="165" x2="206" y1="630.2891" y2="630.2891"/><polygon fill="#A80036" points="175,626.2891,165,630.2891,175,634.2891,171,630.2891" style="stroke: #A80036; stroke-width: 1.0;"/><text fill="#000000" font-family="sans-serif" font-size="13" lengthAdjust="spacingAndGlyphs" textLength="162" x="171" y="612.2231">Generate ch check boxes</text><polygon fill="#A80036" points="142,655.2891,152,659.2891,142,663.2891,146,659.2891" style="stroke: #A80036; stroke-width: 1.0;"/><line style="stroke: #A80036; stroke-width: 1.0;" x1="27" x2="148" y1="659.2891" y2="659.2891"/><text fill="#000000" font-family="sans-serif" font-size="13" lengthAdjust="spacingAndGlyphs" textLength="103" x="34" y="654.356">Check using chs</text><line style="stroke: #A80036; stroke-width: 1.0;" x1="164" x2="206" y1="688.5547" y2="688.5547"/><line style="stroke: #A80036; stroke-width: 1.0;" x1="206" x2="206" y1="688.5547" y2="701.5547"/><line style="stroke: #A80036; stroke-width: 1.0;" x1="165" x2="206" y1="701.5547" y2="701.5547"/><polygon fill="#A80036" points="175,697.5547,165,701.5547,175,705.5547,171,701.5547" style="stroke: #A80036; stroke-width: 1.0;"/><text fill="#000000" font-family="sans-serif" font-size="13" lengthAdjust="spacingAndGlyphs" textLength="130" x="171" y="683.4888">Display selected chs</text><rect fill="#EEEEEE" filter="url(#fcwf0ef)" height="3" style="stroke: #EEEEEE; stroke-width: 1.0;" width="494" x="3" y="730.1211"/><line style="stroke: #000000; stroke-width: 1.0;" x1="3" x2="497" y1="730.1211" y2="730.1211"/><line style="stroke: #000000; stroke-width: 1.0;" x1="3" x2="497" y1="733.1211" y2="733.1211"/><rect fill="#EEEEEE" filter="url(#fcwf0ef)" height="23.1328" style="stroke: #000000; stroke-width: 2.0;" width="106" x="197" y="719.5547"/><text fill="#000000" font-family="sans-serif" font-size="13" font-weight="bold" lengthAdjust="spacingAndGlyphs" textLength="92" x="203" y="735.6216">Second step</text><polygon fill="#A80036" points="142,769.6875,152,773.6875,142,777.6875,146,773.6875" style="stroke: #A80036; stroke-width: 1.0;"/><line style="stroke: #A80036; stroke-width: 1.0;" x1="27" x2="148" y1="773.6875" y2="773.6875"/><text fill="#000000" font-family="sans-serif" font-size="13" lengthAdjust="spacingAndGlyphs" textLength="101" x="34" y="768.7544">Set parameters</text><polygon fill="#A80036" points="142,798.8203,152,802.8203,142,806.8203,146,802.8203" style="stroke: #A80036; stroke-width: 1.0;"/><line style="stroke: #A80036; stroke-width: 1.0;" x1="27" x2="148" y1="802.8203" y2="802.8203"/><text fill="#000000" font-family="sans-serif" font-size="13" lengthAdjust="spacingAndGlyphs" textLength="46" x="34" y="797.8872">Submit</text><rect fill="#EEEEEE" filter="url(#fcwf0ef)" height="3" style="stroke: #EEEEEE; stroke-width: 1.0;" width="494" x="3" y="831.5195"/><line style="stroke: #000000; stroke-width: 1.0;" x1="3" x2="497" y1="831.5195" y2="831.5195"/><line style="stroke: #000000; stroke-width: 1.0;" x1="3" x2="497" y1="834.5195" y2="834.5195"/><rect fill="#EEEEEE" filter="url(#fcwf0ef)" height="23.1328" style="stroke: #000000; stroke-width: 2.0;" width="89" x="205.5" y="820.9531"/><text fill="#000000" font-family="sans-serif" font-size="13" font-weight="bold" lengthAdjust="spacingAndGlyphs" textLength="75" x="211.5" y="837.02">Third step</text><polygon fill="#A80036" points="343,871.0859,353,875.0859,343,879.0859,347,875.0859" style="stroke: #A80036; stroke-width: 1.0;"/><line style="stroke: #A80036; stroke-width: 1.0;" x1="164" x2="349" y1="875.0859" y2="875.0859"/><text fill="#000000" font-family="sans-serif" font-size="13" lengthAdjust="spacingAndGlyphs" textLength="112" x="171" y="870.1528">Send par as DOM</text><line style="stroke: #A80036; stroke-width: 1.0;" x1="355" x2="397" y1="904.3516" y2="904.3516"/><line style="stroke: #A80036; stroke-width: 1.0;" x1="397" x2="397" y1="904.3516" y2="917.3516"/><line style="stroke: #A80036; stroke-width: 1.0;" x1="356" x2="397" y1="917.3516" y2="917.3516"/><polygon fill="#A80036" points="366,913.3516,356,917.3516,366,921.3516,362,917.3516" style="stroke: #A80036; stroke-width: 1.0;"/><text fill="#000000" font-family="sans-serif" font-size="13" lengthAdjust="spacingAndGlyphs" textLength="128" x="362" y="899.2856">Save par as XML file</text></g></svg>